<?xml version="1.0" standalone="no"?>
<!DOCTYPE svg PUBLIC "-//W3C//DTD SVG 20010904//EN"
 "http://www.w3.org/TR/2001/REC-SVG-20010904/DTD/svg10.dtd">
<svg version="1.0" xmlns="http://www.w3.org/2000/svg"
 width="320.000000pt" height="320.000000pt" viewBox="0 0 320.000000 320.000000"
 preserveAspectRatio="xMidYMid meet">
<metadata>
Created by potrace 1.11, written by Peter Selinger 2001-2013
</metadata>
<g transform="translate(0.000000,320.000000) scale(0.100000,-0.100000)"
fill="#000000" stroke="none">
<path d="M0 1600 l0 -1600 1600 0 1600 0 0 1600 0 1600 -1600 0 -1600 0 0
-1600z m1500 1510 c0 -5 -9 -10 -20 -10 -11 0 -20 5 -20 10 0 6 9 10 20 10 11
0 20 -4 20 -10z m170 0 c0 -5 -7 -10 -15 -10 -8 0 -15 5 -15 10 0 6 7 10 15
10 8 0 15 -4 15 -10z m42 -37 c16 -18 78 -120 78 -128 0 -9 -405 -5 -418 4
-11 6 -7 22 17 75 l30 66 139 0 c120 0 141 -2 154 -17z m196 -70 c-10 -2 -28
-2 -40 0 -13 2 -5 4 17 4 22 1 32 -1 23 -4z m-720 -10 c-10 -2 -26 -2 -35 0
-10 3 -2 5 17 5 19 0 27 -2 18 -5z m772 -27 c0 -11 -13 -14 -60 -11 -35 2 -58
0 -55 -6 4 -5 30 -9 60 -9 35 0 59 -5 69 -16 21 -20 21 -64 1 -64 -9 0 -15 9
-15 24 0 22 -5 25 -54 31 -60 8 -88 5 -93 -10 -2 -6 23 -9 67 -7 l70 4 0 -30
c0 -30 -2 -31 -57 -38 -46 -5 -58 -4 -68 10 -7 9 -18 16 -25 16 -8 0 -22 7
-32 17 -15 13 -22 14 -44 4 -22 -9 -35 -9 -70 5 -55 21 -149 14 -196 -13 -48
-28 -92 -23 -128 15 -16 18 -30 36 -30 41 0 12 57 20 68 9 12 -12 448 -6 459
6 4 5 2 11 -5 13 -30 11 5 23 69 23 53 0 69 -3 69 -14z m-635 -6 c4 -6 -16
-10 -52 -10 -41 0 -54 3 -43 10 20 13 87 13 95 0z m-116 -4 c-10 -9 -79 -14
-74 -5 4 5 22 9 42 9 20 0 34 -2 32 -4z m56 -38 c-5 -20 -5 -21 5 -5 12 19 30
14 30 -9 0 -8 -8 -14 -19 -14 -18 0 -45 -23 -37 -31 2 -2 -25 -5 -60 -7 l-64
-3 0 29 c0 45 25 59 108 61 40 1 43 -1 37 -21z m763 -26 c2 -7 -3 -12 -12 -12
-9 0 -16 7 -16 16 0 17 22 14 28 -4z m-918 -17 c0 -8 -7 -15 -15 -15 -8 0 -15
7 -15 15 0 8 7 15 15 15 8 0 15 -7 15 -15z m215 -35 c13 -40 -38 -68 -64 -36
-9 11 -10 20 -1 35 14 28 56 28 65 1z m431 9 c3 -6 2 -15 -3 -20 -5 -5 -14 0
-21 11 -10 17 -10 20 2 20 8 0 18 -5 22 -11z m-427 -63 c-23 -20 -23 -20 -6 0
9 11 18 31 18 45 l2 24 4 -24 c3 -16 -3 -31 -18 -45z m341 36 c34 -25 55 -88
46 -137 -8 -40 -62 -105 -87 -105 -8 0 0 9 17 19 43 26 67 81 59 134 -14 78
-88 121 -171 98 -49 -14 -66 -27 -93 -71 -24 -39 -29 -34 -7 8 31 60 85 85
166 76 25 -2 56 -12 70 -22z m-451 -9 c-1 -23 -2 -24 -6 -6 -3 17 -13 23 -41
26 l-37 4 43 1 c40 2 42 1 41 -25z m186 17 c-4 -6 -10 -8 -14 -6 -4 3 -8 -5
-8 -17 -1 -12 -6 -23 -11 -25 -6 -2 -9 -11 -7 -20 1 -9 0 -11 -2 -4 -4 11 -8
11 -21 0 -9 -7 -6 0 6 16 12 16 22 37 22 47 0 13 7 19 21 19 11 0 17 -5 14
-10z m410 0 c3 -5 37 -10 75 -10 38 0 72 5 75 10 3 6 11 10 18 10 6 0 2 -7 -9
-15 -23 -18 -149 -21 -160 -4 -4 8 -14 -1 -26 -22 -11 -19 -16 -25 -12 -14 3
11 9 28 11 38 6 19 19 22 28 7z m-176 -25 c48 -24 66 -108 35 -155 -28 -41
-45 -50 -101 -50 -44 0 -58 5 -87 30 -43 38 -53 77 -31 120 32 62 120 89 184
55z m348 -62 c-2 -16 -4 -3 -4 27 0 30 2 43 4 28 2 -16 2 -40 0 -55z m-746 20
c13 -16 12 -17 -3 -4 -10 7 -18 15 -18 17 0 8 8 3 21 -13z m546 -65 c-2 -13
-4 -3 -4 22 0 25 2 35 4 23 2 -13 2 -33 0 -45z m-430 0 c-3 -7 -5 -2 -5 12 0
14 2 19 5 13 2 -7 2 -19 0 -25z m618 -136 c-3 -3 -13 3 -23 13 -16 18 -16 18
1 6 16 -13 17 -8 19 60 l2 74 3 -74 c2 -40 1 -76 -2 -79z m-486 42 c12 -9 43
-19 69 -24 40 -6 42 -8 14 -9 -18 0 -47 5 -66 13 -33 14 -76 59 -76 80 0 6 8
-2 19 -17 10 -15 28 -35 40 -43z m272 10 c-12 -19 -21 -37 -21 -40 0 -10 67
-3 79 9 10 10 11 9 6 -5 -6 -14 -19 -18 -62 -18 l-55 0 26 31 c14 17 29 43 33
57 3 15 8 21 11 14 2 -7 -6 -28 -17 -48z m-398 -9 c-3 -9 -8 -14 -10 -11 -3 3
-2 9 2 15 9 16 15 13 8 -4z m40 -46 c7 -1 16 -1 20 0 5 1 6 -3 3 -8 -3 -5 -15
-7 -26 -4 -14 4 -20 13 -19 32 2 23 2 24 6 4 2 -13 10 -24 16 -24z m-48 11 c4
-6 -30 -9 -97 -8 l-103 2 95 6 c52 3 96 7 97 8 1 1 5 -2 8 -8z m583 -32 c-3
-31 -6 -33 -46 -36 -26 -2 -50 2 -59 10 -14 11 -15 11 -11 -2 3 -11 20 -15 64
-15 54 0 59 2 62 23 2 14 10 22 24 22 14 0 18 -5 14 -16 -3 -9 -6 -24 -6 -34
0 -18 -18 -18 -422 -17 l-422 2 -7 33 -7 34 197 -6 c108 -3 215 -9 239 -12 28
-4 60 0 92 10 37 12 67 15 115 10 56 -6 65 -5 65 10 0 13 11 16 56 16 l55 0
-3 -32z m-318 -97 c-5 -11 -9 -39 -8 -63 1 -39 2 -40 5 -9 l4 34 68 -5 c70 -5
120 -22 91 -31 -8 -2 -42 -12 -75 -22 -70 -21 -189 -21 -277 0 -65 15 -79 22
-57 29 8 2 29 9 48 15 19 6 47 11 62 11 26 0 29 -4 29 -30 0 -16 5 -30 11 -30
7 0 9 20 6 60 l-5 60 55 0 c50 0 53 -1 43 -19z m-210 -108 c25 -7 66 -12 93
-13 43 0 60 -11 38 -25 -5 -3 -12 -19 -16 -35 -4 -17 -8 -30 -10 -30 -2 0 -30
16 -62 35 -32 19 -75 38 -95 41 -21 4 -38 12 -38 18 0 18 22 36 34 28 6 -4 31
-12 56 -19z m424 9 c15 -18 14 -19 -24 -31 -22 -6 -56 -26 -75 -42 -24 -21
-35 -26 -35 -16 0 8 -9 25 -19 38 l-20 24 67 22 c83 27 85 27 106 5z m-207
-31 c6 6 13 7 16 2 3 -5 -3 -14 -13 -20 -15 -10 -21 -8 -36 9 -19 21 -19 21 2
10 14 -8 24 -8 31 -1z m389 -48 c-3 -3 -51 15 -65 23 -1 2 0 7 4 13 4 7 17 3
35 -11 17 -12 28 -23 26 -25z m-40 1 c19 -9 34 -18 34 -19 0 -2 -5 -16 -10
-31 -13 -32 -29 -184 -20 -184 3 0 11 41 18 92 6 50 16 96 23 102 9 8 10 1 6
-29 -4 -22 -4 -34 -1 -27 3 6 12 12 20 12 8 0 14 2 14 4 0 2 3 13 7 23 6 16 5
16 -10 4 -15 -12 -17 -11 -17 8 0 24 8 26 34 6 10 -7 15 -18 11 -24 -3 -6 0
-11 8 -11 16 0 115 -195 133 -265 13 -48 12 -51 -13 -90 -15 -22 -67 -80 -117
-130 l-91 -90 -3 43 c-4 51 17 89 96 175 l54 59 -20 21 c-43 48 -87 124 -99
172 l-13 50 5 -47 c2 -26 -2 -85 -10 -130 -17 -104 -37 -376 -34 -487 l2 -85
-50 -17 c-73 -25 -193 -35 -204 -18 -7 11 -11 12 -17 1 -21 -31 -36 21 -45
151 -8 117 -11 134 -30 149 -16 13 -18 18 -7 18 9 0 23 -12 33 -27 l18 -28 -7
45 c-3 25 -10 53 -15 62 -5 9 -9 25 -9 35 0 10 11 -6 25 -36 31 -65 42 -61 25
10 -9 36 -10 80 -5 143 11 136 11 146 -19 209 -14 32 -24 63 -21 68 4 5 20 9
36 9 34 0 159 58 204 95 36 29 38 29 81 9z m-636 -65 c30 -4 91 -13 135 -20
44 -6 84 -15 88 -19 5 -4 -1 -43 -13 -86 -27 -96 -23 -151 19 -241 37 -77 38
-85 51 -296 9 -129 8 -172 -1 -183 -9 -11 -15 -12 -25 -3 -11 9 -14 8 -14 -1
0 -24 -285 1 -311 27 -4 4 -12 33 -17 63 -5 30 -18 102 -30 160 -11 58 -25
165 -31 238 -6 73 -15 141 -21 152 -5 10 -10 48 -10 83 0 36 -6 83 -14 105
-11 29 -11 40 -3 37 7 -3 23 5 37 16 24 20 24 20 3 14 -13 -4 -23 -2 -23 3 0
21 27 17 75 -11 27 -16 75 -33 105 -38z m280 11 c0 -5 -4 -10 -9 -10 -6 0 -13
5 -16 10 -3 6 1 10 9 10 9 0 16 -4 16 -10z m30 -10 c0 -5 -5 -10 -11 -10 -5 0
-7 5 -4 10 3 6 8 10 11 10 2 0 4 -4 4 -10z m-504 -78 c10 -65 -3 -177 -26
-224 -22 -45 -22 -45 34 -106 23 -25 31 -45 37 -90 3 -31 5 -59 3 -61 -9 -10
-111 81 -150 134 -43 58 -45 61 -39 115 12 114 46 211 78 225 15 7 22 19 23
40 2 48 4 51 19 31 8 -10 17 -39 21 -64z m448 57 c-8 -14 -24 -10 -24 6 0 9 6
12 15 9 8 -4 12 -10 9 -15z m31 -9 c-3 -5 -12 -10 -18 -10 -7 0 -6 4 3 10 19
12 23 12 15 0z m15 -483 c0 -5 -4 -5 -10 -2 -5 3 -10 14 -10 23 0 15 2 15 10
2 5 -8 10 -19 10 -23z m10 -72 c0 -8 -4 -15 -10 -15 -5 0 -10 7 -10 15 0 8 5
15 10 15 6 0 10 -7 10 -15z m0 -55 c0 -11 -4 -20 -10 -20 -5 0 -10 9 -10 20 0
11 5 20 10 20 6 0 10 -9 10 -20z m10 -61 c0 -10 -4 -19 -10 -19 -5 0 -10 12
-10 26 0 14 4 23 10 19 6 -3 10 -15 10 -26z m0 -54 c0 -8 -4 -15 -10 -15 -5 0
-10 7 -10 15 0 8 5 15 10 15 6 0 10 -7 10 -15z m-4 -62 c-11 -11 -19 6 -11 24
8 17 8 17 12 0 3 -10 2 -21 -1 -24z m34 -49 c0 -2 -8 0 -19 5 -13 7 -23 6 -37
-4 -19 -15 -19 -15 0 -30 11 -8 15 -15 9 -15 -6 0 -17 7 -24 16 -11 14 -10 19
10 35 17 14 27 16 42 9 10 -6 19 -13 19 -16z m-20 -14 c0 -5 -7 -10 -15 -10
-8 0 -15 5 -15 10 0 6 7 10 15 10 8 0 15 -4 15 -10z m-247 -566 l37 -7 -1 -66
c0 -80 -13 -208 -20 -216 -8 -7 -111 13 -122 24 -16 16 -20 122 -7 196 13 75
13 75 44 75 17 0 48 -3 69 -6z m567 -86 c11 -62 8 -174 -5 -186 -4 -4 -124
-31 -126 -28 -5 5 -25 264 -21 273 3 10 114 23 134 15 3 -1 12 -34 18 -74z"/>
<path d="M1488 3038 c35 -6 83 -6 135 0 l82 9 -135 0 c-117 1 -128 -1 -82 -9z"/>
<path d="M1868 2883 c6 -2 18 -2 25 0 6 3 1 5 -13 5 -14 0 -19 -2 -12 -5z"/>
<path d="M1873 2853 c9 -2 23 -2 30 0 6 3 -1 5 -18 5 -16 0 -22 -2 -12 -5z"/>
<path d="M1653 2705 c0 -8 4 -15 9 -15 4 0 8 4 8 9 0 6 -4 12 -8 15 -5 3 -9
-1 -9 -9z"/>
<path d="M1610 2665 c-11 -13 -10 -14 5 -9 13 5 16 4 11 -5 -5 -8 -18 -10 -33
-6 -17 4 -24 2 -21 -6 7 -21 24 -21 49 0 17 14 21 23 13 31 -8 8 -14 7 -24 -5z"/>
<path d="M1853 2103 c9 -2 17 -11 17 -19 0 -8 5 -14 10 -14 6 0 10 6 10 14 0
8 6 17 13 19 6 3 -6 5 -28 5 -22 0 -32 -2 -22 -5z"/>
<path d="M1794 2031 c-2 -2 -4 -33 -4 -67 0 -56 3 -66 27 -89 16 -14 40 -25
55 -25 19 0 31 -8 40 -27 19 -39 36 -39 52 -1 15 37 31 212 17 188 -5 -8 -11
-48 -14 -89 -4 -41 -10 -78 -16 -84 -5 -5 -7 -16 -4 -23 9 -25 -13 -15 -25 11
-10 21 -9 28 8 45 16 16 20 34 20 89 l0 69 -76 4 c-42 2 -78 1 -80 -1z m146
-30 c0 -30 -28 -51 -67 -51 -40 0 -73 23 -73 52 0 16 9 18 70 18 62 0 70 -2
70 -19z m-114 -59 c6 -4 13 -21 16 -39 4 -27 2 -31 -13 -23 -17 10 -29 32 -29
56 0 15 9 18 26 6z m105 -29 c-3 -20 -11 -38 -16 -40 -14 -4 -15 60 -1 69 20
14 23 9 17 -29z m-44 -13 c-3 -54 -27 -54 -27 0 0 28 4 40 14 40 10 0 14 -12
13 -40z"/>
<path d="M1865 1970 c-3 -5 -1 -10 4 -10 6 0 11 5 11 10 0 6 -2 10 -4 10 -3 0
-8 -4 -11 -10z"/>
<path d="M1276 2034 c-3 -9 -3 -45 0 -80 8 -75 34 -108 85 -106 50 1 67 27 71
104 1 36 -1 70 -5 75 -5 4 -32 8 -60 8 -29 0 -59 4 -68 8 -11 6 -18 3 -23 -9z
m144 -37 c0 -34 -19 -47 -66 -47 -33 0 -47 5 -58 22 -29 41 -21 48 54 48 66 0
70 -1 70 -23z m-90 -95 c0 -34 0 -35 -20 -17 -11 10 -20 28 -20 41 0 17 4 21
20 17 15 -4 20 -14 20 -41z m71 -26 l-21 -20 0 36 c0 25 6 40 18 47 27 15 30
-36 3 -63z m-31 24 c0 -29 -4 -40 -15 -40 -11 0 -15 11 -15 40 0 29 4 40 15
40 11 0 15 -11 15 -40z"/>
</g>
</svg>
